<?xml version="1.0" encoding="utf-8"?>
<!-- Generator: Adobe Illustrator 27.0.0, SVG Export Plug-In . SVG Version: 6.00 Build 0)  -->
<svg version="1.1" id="Layer_1" xmlns="http://www.w3.org/2000/svg" xmlns:xlink="http://www.w3.org/1999/xlink" x="0px" y="0px"
	 viewBox="0 0 258.1 258.1" style="enable-background:new 0 0 258.1 258.1;" xml:space="preserve">
<style type="text/css">
	.st0{fill:#FFFFD9;}
	.st1{fill:#FFFFD9;stroke:#FFFFFF;stroke-width:0.86;stroke-miterlimit:10;}
</style>
<path class="st0" d="M209.6,0.4H48.4c-26.5,0-48,21.5-48,48v161.2c0,26.5,21.5,48,48,48h161.2c26.5,0,48-21.5,48-48V48.4
	C257.6,21.9,236.1,0.4,209.6,0.4z M116.7,189.8H28.1V75.4h86.4v21.2h-60v24.7h53.1v20.8H54.5v26.5h62.2V189.8L116.7,189.8z
	 M230.9,138.9c-4,6.2-9.8,10.9-17.1,14.3c-7.4,3.4-16.2,5.1-26.5,5.1h-22.9v31.5h-26.6V75.4h49.5c10.2,0,19.1,1.7,26.5,5
	s13.1,8.1,17.1,14.3s6,13.6,6,22.1S234.9,132.8,230.9,138.9L230.9,138.9z"/>
<path class="st1" d="M204.1,102.2c-4.1-3.4-10.2-5.2-18.3-5.2h-21.4v39.7h21.4c8.1,0,14.2-1.7,18.3-5.2s6.2-8.4,6.2-14.7
	S208.2,105.6,204.1,102.2z"/>
</svg>
